<svg xmlns="http://www.w3.org/2000/svg" viewBox="419 288.806 91.532 91.533">
  <defs>
    <style>
      .cls-1 {
        fill: #019ae8;
        fill-rule: evenodd;
      }
    </style>
  </defs>
  <g id="noun_Baguette_1059285" transform="translate(419 288.806)">
    <g id="Groupe_2" data-name="Groupe 2" transform="translate(0 0)">
      <g id="Groupe_1" data-name="Groupe 1">
        <path id="pain" class="cls-1" d="M57.737,57.738C34.281,81.194,19.3,94.693,9,84.4,1.818,77.213,2.063,63.987,8.24,50.09a20.912,20.912,0,0,0,6.817,12.032,1.788,1.788,0,0,0,2.971-1.555c-.021-.159-1.974-15.745-.1-26.514a89.506,89.506,0,0,1,7.543-8.576c.1-.1.2-.191.3-.29-.106,4.472,1.274,11.085,8.159,17.949a1.788,1.788,0,0,0,3.016-1.613c-.032-.155-2.976-15.363-.025-25.715A78.22,78.22,0,0,1,48.654,8.915c.081,4.18.927,9.149,5.859,13.591a1.787,1.787,0,0,0,2.98-1.456c-.225-3.1-.383-11.633,1.335-15.93A41.261,41.261,0,0,1,69.412,3.61c6.089,0,11.323,1.733,14.986,5.4C89.388,14,89.1,20.139,83.481,28.924c-5.464,8.534-15.315,18.385-25.744,28.814m-46-14.485q.921-1.591,1.937-3.175a118.711,118.711,0,0,0,.24,15.138,17.4,17.4,0,0,1-2.176-11.963M29.994,21.276q1.28-1.117,2.585-2.168a68.358,68.358,0,0,0-.069,16.648c-4.584-7.191-3-13.09-2.516-14.48M52.23,7.353q1.259-.508,2.5-.945a46.975,46.975,0,0,0-.946,9.487A17.189,17.189,0,0,1,52.23,7.353m34.7-.876C75.987-4.46,54.172-1.1,34.356,13.216c-.031.021-.063.042-.092.066A95.041,95.041,0,0,0,14.813,32.213c-.018.025-.039.049-.056.075C-.851,52.636-4.843,75.608,6.477,86.927a14.309,14.309,0,0,0,10.416,4.606c12.1,0,26.88-14.775,43.372-31.268C81.848,38.682,100.489,20.041,86.926,6.477" transform="translate(0 -0.001)"/>
      </g>
    </g>
  </g>
</svg>
